#!OML:ASF H:\Dans Jumps\Project 1\Capture day 1\Session 1\subject.ASF
:FULLY-SPECIFIED
:DEGREES
568
root 0.0888193 17.6894 10.4254 6.19083 -0.805481 -1.54229
lowerback -5.03589 0.580621 0.361694
upperback -0.48742 0.723991 1.20041
thorax 2.31062 0.359481 1.08094
lowerneck -15.6689 -0.137173 -2.50967
upperneck 16.3582 0.0806024 1.73346
head 7.61962 0.0497304 0.992437
rclavicle 5.26779e-015 -1.59028e-015
rhumerus -26.3333 -17.1134 -80.7357
rradius 20.7114
rwrist 42.6653
rhand -15.8317 -25.8035
rfingers 7.12502
rthumb 10.3625 -55.5282
lclavicle 5.26779e-015 -1.59028e-015
lhumerus -24.2003 4.91365 88.0853
lradius 12.9041
lwrist -6.12838
lhand -22.9781 -6.07605
lfingers 7.12502
lthumb 3.46426 23.8755
rfemur -9.94615 -2.97209 19.9699
rtibia 19.1739
rfoot -14.5749 2.01846
rtoes 14.8415
lfemur -8.67972 7.72007 -17.5054
ltibia 16.5603
lfoot -10.9632 6.29733
ltoes -7.3485
569
root 0.0886623 17.6895 10.4243 6.19163 -0.774 -1.54606
lowerback -5.02984 0.582412 0.357135
upperback -0.486626 0.726799 1.19622
thorax 2.30801 0.360862 1.07931
lowerneck -15.6865 -0.153634 -2.47882
upperneck 16.3456 0.0568118 1.7043
head 7.61916 0.0376009 0.975104
rclavicle -1.58903e-014 -9.74045e-015
rhumerus -26.321 -17.1226 -80.7444
rradius 20.7089
rwrist 42.6887
rhand -15.8099 -25.8209
rfingers 7.12502
rthumb 10.3836 -55.5445
lclavicle -1.58903e-014 -9.74045e-015
lhumerus -24.2036 4.95342 88.0375
lradius 12.9066
lwrist -6.09017
lhand -22.9467 -5.93207
lfingers 7.12502
lthumb 3.49455 24.019
rfemur -9.94241 -3.01207 19.9756
rtibia 19.1644
rfoot -14.5711 2.03155
rtoes 14.8544
lfemur -8.69753 7.71811 -17.5007
ltibia 16.5771
lfoot -10.9679 6.27167
ltoes -7.35841
570
root 0.0885442 17.6895 10.4233 6.19114 -0.745225 -1.55104
lowerback -5.0255 0.585294 0.353513
upperback -0.482614 0.73095 1.19207
thorax 2.30964 0.362908 1.07734
lowerneck -15.7012 -0.169754 -2.47034
upperneck 16.3296 0.0333526 1.70339
head 7.61698 0.0269764 0.970772
rclavicle 1.04735e-014 4.17448e-015
rhumerus -26.3002 -17.1284 -80.7589
rradius 20.7057
rwrist 42.7052
rhand -15.7885 -25.8419
rfingers 7.12502
rthumb 10.4041 -55.5645
lclavicle 1.04735e-014 4.17448e-015
lhumerus -24.1986 4.99296 87.9917
lradius 12.9078
lwrist -6.05568
lhand -22.9158 -5.79337
lfingers 7.12502
lthumb 3.52443 24.1572
rfemur -9.93803 -3.04843 19.9823
rtibia 19.1562
rfoot -14.5681 2.04306
rtoes 14.877
lfemur -8.71336 7.71678 -17.4945
ltibia 16.5933
lfoot -10.974 6.24744
ltoes -7.3605
571
root 0.0884218 17.6895 10.4222 6.18682 -0.721055 -1.55603
lowerback -5.01839 0.590537 0.349535
upperback -0.477431 0.738315 1.18657
thorax 2.3109 0.366559 1.07438
lowerneck -15.7109 -0.188637 -2.47431
upperneck 16.317 0.00577256 1.71902
head 7.61514 0.0151847 0.973491
rclavicle 1.76297e-014 8.74653e-015
rhumerus -26.2821 -17.1216 -80.7805
rradius 20.7095
rwrist 42.6994
rhand -15.7754 -25.865
rfingers 7.12502
rthumb 10.4169 -55.587
lclavicle 1.76297e-014 8.74653e-015
lhumerus -24.1931 5.04613 87.9394
lradius 12.9032
lwrist -6.05611
lhand -22.8919 -5.70532
lfingers 7.12502
lthumb 3.5475 24.2449
rfemur -9.93101 -3.07824 19.9891
rtibia 19.1492
rfoot -14.5639 2.05138
rtoes 14.8924
lfemur -8.7248 7.71684 -17.488
ltibia 16.6097
lfoot -10.9804 6.22712
ltoes -7.3621
572
root 0.0883151 17.6894 10.4211 6.17809 -0.700765 -1.56102
lowerback -5.01132 0.59804 0.345646
upperback -0.469709 0.748689 1.17978
thorax 2.31476 0.371706 1.07027
lowerneck -15.6971 -0.214054 -2.48966
upperneck 16.291 -0.030435 1.74465
head 7.60498 -0.0004937 0.980298
rclavicle 1.61388e-014 5.56597e-015
rhumerus -26.2657 -17.1055 -80.8076
rradius 20.7181
rwrist 42.671
rhand -15.7788 -25.8764
rfingers 7.12502
rthumb 10.4135 -55.5985
lclavicle 1.61388e-014 5.56597e-015
lhumerus -24.1888 5.10211 87.8842
lradius 12.8949
lwrist -6.08732
lhand -22.888 -5.68204
lfingers 7.12502
lthumb 3.55126 24.2681
rfemur -9.92013 -3.10338 19.9956
rtibia 19.1436
rfoot -14.5596 2.05774
rtoes 14.9024
lfemur -8.73102 7.71634 -17.4813
ltibia 16.626
lfoot -10.9866 6.21259
ltoes -7.3683
573
root 0.0881681 17.6893 10.4202 6.16484 -0.683909 -1.56819
lowerback -5.00446 0.607447 0.343036
upperback -0.459239 0.761498 1.17278
thorax 2.32155 0.378072 1.06542
lowerneck -15.6665 -0.243894 -2.51644
upperneck 16.2562 -0.0725933 1.78219
head 7.5891 -0.0186071 0.992168
rclavicle 8.32411e-016 1.19271e-015
rhumerus -26.2481 -17.0869 -80.8397
rradius 20.7309
rwrist 42.627
rhand -15.788 -25.8793
rfingers 7.12502
rthumb 10.4047 -55.6018
lclavicle 8.32411e-016 1.19271e-015
lhumerus -24.1854 5.17497 87.8219
lradius 12.8791
lwrist -6.16649
lhand -22.9007 -5.72283
lfingers 7.12502
lthumb 3.53898 24.2275
rfemur -9.90507 -3.12243 20.0045
rtibia 19.1398
rfoot -14.5574 2.05974
rtoes 14.8963
lfemur -8.73098 7.71492 -17.4716
ltibia 16.6416
lfoot -10.9911 6.2039
ltoes -7.38783
574
root 0.0879989 17.6891 10.4192 6.15033 -0.669131 -1.57365
lowerback -4.99791 0.617787 0.338629
upperback -0.447736 0.775674 1.16427
thorax 2.32954 0.385104 1.06014
lowerneck -15.6267 -0.278451 -2.56724
upperneck 16.2238 -0.120858 1.84659
head 7.57264 -0.0385865 1.01617
rclavicle -3.66509e-015 -8.74653e-015
rhumerus -26.2298 -17.0664 -80.8766
rradius 20.7485
rwrist 42.5716
rhand -15.8006 -25.874
rfingers 7.12502
rthumb 10.3925 -55.5971
lclavicle -3.66509e-015 -8.74653e-015
lhumerus -24.1812 5.25189 87.7578
lradius 12.8584
lwrist -6.26169
lhand -22.9192 -5.7854
lfingers 7.12502
lthumb 3.52112 24.1653
rfemur -9.8895 -3.13686 20.0115
rtibia 19.1367
rfoot -14.5543 2.0585
rtoes 14.8848
lfemur -8.72998 7.71282 -17.4637
ltibia 16.6571
lfoot -10.9932 6.198
ltoes -7.41232
575
root 0.087867 17.6889 10.4183 6.13444 -0.655075 -1.57841
lowerback -4.99471 0.627964 0.333068
upperback -0.433443 0.789616 1.15626
thorax 2.34227 0.391991 1.05607
lowerneck -15.5934 -0.310008 -2.60756
upperneck 16.1909 -0.165111 1.89934
head 7.55708 -0.0571204 1.03507
rclavicle -3.44767e-015 6.95746e-015
rhumerus -26.2042 -17.0463 -80.9163
rradius 20.7649
rwrist 42.5085
rhand -15.8174 -25.8653
rfingers 7.12502
rthumb 10.3763 -55.5892
lclavicle -3.44767e-015 6.95746e-015
lhumerus -24.1751 5.31851 87.7019
lradius 12.8485
lwrist -6.32686
lhand -22.9289 -5.80644
lfingers 7.12502
lthumb 3.51171 24.1444
rfemur -9.87206 -3.15018 20.0173
rtibia 19.1345
rfoot -14.5528 2.0569
rtoes 14.8695
lfemur -8.7266 7.70838 -17.4563
ltibia 16.6723
lfoot -10.9943 6.19385
ltoes -7.43202
576
root 0.0877246 17.6887 10.4173 6.12266 -0.638657 -1.58588
lowerback -4.99044 0.636406 0.330545
upperback -0.422483 0.801103 1.14927
thorax 2.35104 0.397693 1.05114
lowerneck -15.5643 -0.341351 -2.65342
upperneck 16.166 -0.208393 1.9557
head 7.5449 -0.0752144 1.05624
rclavicle -4.67765e-015 0
rhumerus -26.175 -17.028 -80.9565
rradius 20.7816
rwrist 42.4613
rhand -15.8156 -25.8705
rfingers 7.12502
rthumb 10.3781 -55.5944
lclavicle -4.67765e-015 0
lhumerus -24.1679 5.35771 87.661
lradius 12.8539
lwrist -6.30928
lhand -22.9084 -5.7169
lfingers 7.12502
lthumb 3.53158 24.2336
rfemur -9.85891 -3.16066 20.0268
rtibia 19.1317
rfoot -14.5514 2.0498
rtoes 14.8545
lfemur -8.72936 7.70369 -17.4463
ltibia 16.6889
lfoot -10.9953 6.1873
ltoes -7.45494
577
root 0.087668 17.6885 10.4164 6.11214 -0.623391 -1.59212
lowerback -4.99065 0.643725 0.326833
upperback -0.409339 0.811074 1.14289
thorax 2.36456 0.402611 1.04748
lowerneck -15.5496 -0.36795 -2.68012
upperneck 16.1433 -0.245321 1.99079
head 7.53586 -0.0910963 1.06799
rclavicle -1.67103e-014 2.38542e-015
rhumerus -26.1374 -17.0111 -80.9985
rradius 20.7962
rwrist 42.4192
rhand -15.8122 -25.8825
rfingers 7.12502
rthumb 10.3813 -55.6062
lclavicle -1.67103e-014 2.38542e-015
lhumerus -24.1555 5.37662 87.6345
lradius 12.8742
lwrist -6.23056
lhand -22.8722 -5.54588
lfingers 7.12502
lthumb 3.56656 24.404
rfemur -9.84688 -3.16988 20.0344
rtibia 19.1282
rfoot -14.5495 2.04345
rtoes 14.8466
lfemur -8.73407 7.69851 -17.4382
ltibia 16.7074
lfoot -10.9974 6.18219
ltoes -7.47102
578
root 0.0876962 17.6883 10.4155 6.10348 -0.608552 -1.60368
lowerback -4.99468 0.650237 0.328823
upperback -0.39496 0.819544 1.13861
thorax 2.38157 0.406819 1.04274
lowerneck -15.5435 -0.391107 -2.69298
upperneck 16.1231 -0.277264 2.0083
head 7.52896 -0.105411 1.07225
rclavicle -6.64686e-016 7.95139e-015
rhumerus -26.0937 -16.9919 -81.0415
rradius 20.8097
rwrist 42.3798
rhand -15.807 -25.8912
rfingers 7.12502
rthumb 10.3863 -55.6147
lclavicle -6.64686e-016 7.95139e-015
lhumerus -24.1385 5.37548 87.6211
lradius 12.9109
lwrist -6.09635
lhand -22.8123 -5.28929
lfingers 7.12502
lthumb 3.62441 24.6596
rfemur -9.83619 -3.17691 20.0475
rtibia 19.1233
rfoot -14.5468 2.03664
rtoes 14.8492
lfemur -8.74171 7.69429 -17.4248
ltibia 16.7281
lfoot -11.001 6.17769
ltoes -7.49684
579
root 0.0877601 17.6881 10.4147 6.09693 -0.594549 -1.61531
lowerback -5.00002 0.654729 0.328875
upperback -0.381675 0.825394 1.13587
thorax 2.39817 0.409697 1.04051
lowerneck -15.5644 -0.404405 -2.67972
upperneck 16.1187 -0.296561 2.00069
head 7.53164 -0.114424 1.06547
rclavicle 7.65942e-015 -1.07344e-014
rhumerus -26.0483 -16.9736 -81.0826
rradius 20.8208
rwrist 42.3486
rhand -15.8008 -25.8971
rfingers 7.12502
rthumb 10.3924 -55.6203
lclavicle 7.65942e-015 -1.07344e-014
lhumerus -24.1214 5.38071 87.6098
lradius 12.9471
lwrist -5.96211
lhand -22.7492 -5.03714
lfingers 7.12502
lthumb 3.68532 24.9107
rfemur -9.82825 -3.1812 20.0608
rtibia 19.1185
rfoot -14.542 2.02746
rtoes 14.8514
lfemur -8.75181 7.69183 -17.4118
ltibia 16.7492
lfoot -11.0042 6.17345
ltoes -7.53139
